<svg id="Layer_1" data-name="Layer 1" xmlns="http://www.w3.org/2000/svg" viewBox="0 0 364.67 230.19"><defs><style>.cls-1{fill:#fff;}</style></defs><title>brett-line-logo</title><path class="cls-1" d="M171.09,131.86a55.27,55.27,0,0,1,12.21,35.49q0,29.63-19.7,46.23t-56.49,16.6H0V0H104.51q35.16,0,54.37,15.3t19.21,43.63q0,20.84-11.07,34.67a51,51,0,0,1-29,18.07Q158.88,116.56,171.09,131.86ZM55.67,94.09H92.14q29,0,29-24.74T91.49,44.6H55.67Zm70.65,65.44q0-12.37-8.14-19.37t-23.12-7H55.67v51.77H95.4Q126.32,184.93,126.33,159.54Z"/><path class="cls-1" d="M266.8,181.59l-8.52,48.59h8.11l8.52-48.59Zm16.56,18.76-5.22,29.83H297.8Zm3.3-18.76L301,211.69l5.29-30.1Zm69.77,0-1.65,9.35H336.29l-1.72,10.17h16.36L349.35,210H332.92l-1.86,10.79h18.49l-1.65,9.41h8.27l8.5-48.59Zm-46.88,48.59h8.11l8.52-48.59h-8.11Zm-65.49-48.59V0H188.39V230.18h58.13L255,181.59Z"/></svg>