<svg id="Layer_1" data-name="Layer 1" xmlns="http://www.w3.org/2000/svg" width="50" height="50" viewBox="0 0 50 50"><defs><style>.cls-1{fill:#1c566c;}.cls-2{fill:none;}</style></defs><title>social-youtube-teal</title><path class="cls-1" d="M40.58,25.8a4.09,4.09,0,0,0-3.49-3.18A120.92,120.92,0,0,0,25,22.18a120.27,120.27,0,0,0-12.07.44,4,4,0,0,0-2.24,1A4.14,4.14,0,0,0,9.42,25.8a37.75,37.75,0,0,0-.57,7.62A37,37,0,0,0,9.42,41a4,4,0,0,0,1.25,2.16,3.86,3.86,0,0,0,2.23,1,116.49,116.49,0,0,0,12.1.5,116.47,116.47,0,0,0,12.09-.46,3.81,3.81,0,0,0,2.22-1A4.13,4.13,0,0,0,40.58,41a37.75,37.75,0,0,0,.57-7.62A37,37,0,0,0,40.58,25.8ZM18.07,28H15.74V40.4H13.56V28H11.28V26h6.8v2ZM24,40.39H22V39.22a3.19,3.19,0,0,1-2.22,1.33,1.17,1.17,0,0,1-1.26-.81,5.39,5.39,0,0,1-.17-1.59V29.63h1.94v7.93a6,6,0,0,0,0,.76q.07.46.46.46.59,0,1.24-.91V29.63h2Zm7.41-3.22a8,8,0,0,1-.2,2.18,1.51,1.51,0,0,1-1.55,1.2,2.7,2.7,0,0,1-2-1.2v1h-2V26h1.94v4.73a2.63,2.63,0,0,1,2-1.18,1.51,1.51,0,0,1,1.55,1.22,7.78,7.78,0,0,1,.2,2.16Zm7.36-1.79h-3.9v1.9q0,1.5,1,1.5A.83.83,0,0,0,36.7,38a10.86,10.86,0,0,0,0-1.33h2V37a9.65,9.65,0,0,1,0,1.26,2.7,2.7,0,0,1-2.81,2.33,2.8,2.8,0,0,1-2.35-1.11,4.09,4.09,0,0,1-.63-2.53V33.14a4.21,4.21,0,0,1,.61-2.53,3,3,0,0,1,4.64,0,4.32,4.32,0,0,1,.59,2.53v2.24Z"/><path class="cls-1" d="M28.57,31.26a1.4,1.4,0,0,0-1,.48V38.3a1.4,1.4,0,0,0,1,.48q.85,0,.85-1.46v-4.6Q29.42,31.26,28.57,31.26Z"/><path class="cls-1" d="M35.81,31.26q-1,0-1,1.48v1h2v-1Q36.79,31.26,35.81,31.26Z"/><path class="cls-1" d="M16.81,14.32v5.9H19v-5.9l2.64-8.69H19.4l-1.48,5.73L16.37,5.62H14.06q.61,1.83,1.42,4.07A36.93,36.93,0,0,1,16.81,14.32Z"/><path class="cls-1" d="M24.54,20.37a2.68,2.68,0,0,0,2.31-1.11,4.29,4.29,0,0,0,.61-2.57V12.88a4.25,4.25,0,0,0-.61-2.55,2.93,2.93,0,0,0-4.6,0,4.25,4.25,0,0,0-.61,2.55v3.81a4.35,4.35,0,0,0,.61,2.57A2.69,2.69,0,0,0,24.54,20.37Zm-.94-7.89q0-1.5.94-1.5t.94,1.5v4.57q0,1.53-.94,1.52t-.94-1.52Z"/><path class="cls-1" d="M30.53,20.37A3.13,3.13,0,0,0,32.78,19v1.2h2V9.35h-2v8.3q-.65.94-1.24.94-.39,0-.46-.48a5.69,5.69,0,0,1,0-.76v-8h-2v8.58a5.6,5.6,0,0,0,.17,1.63A1.21,1.21,0,0,0,30.53,20.37Z"/><rect class="cls-2" width="50" height="50"/></svg>