<svg id="Layer_1" data-name="Layer 1" xmlns="http://www.w3.org/2000/svg" width="50" height="50" viewBox="0 0 50 50"><defs><style>.cls-1{fill:none;}.cls-2{fill:#1c566c;}</style></defs><title>social-linkedin-teal</title><rect class="cls-1" width="50" height="50"/><path class="cls-2" d="M12.52,16.51h0a3.67,3.67,0,0,1-3.89-3.44V13h0v-.2a3.67,3.67,0,0,1,3.66-3.68h.22a3.67,3.67,0,0,1,3.68,3.66s0,0,0,0a3.57,3.57,0,0,1-3.07,3.68ZM16,40.65H9V19.37h7Zm25.38,0H34.21V29.4c0-2.86-1-4.71-3.48-4.71A4,4,0,0,0,27,27.15,5.67,5.67,0,0,0,26.8,29V40.86h-7V19.37h7v3.07h0A6.67,6.67,0,0,1,33.19,19c4.71,0,8.19,3.07,8.19,9.41Z"/></svg>