<svg id="Layer_1" data-name="Layer 1" xmlns="http://www.w3.org/2000/svg" width="50" height="50" viewBox="0 0 50 50"><defs><style>.cls-1{fill:none;}.cls-2{fill:#1c566c;}</style></defs><title>social-vimeo-teal</title><rect class="cls-1" width="50" height="50"/><path class="cls-2" d="M37.81,10.42q5.25.14,5.26,6v.79q-.23,4.94-7.36,13.46-7.36,8.92-12.49,8.94-3.19,0-5.31-5.46l-1.49-5-1.47-5q-1.63-5.42-3.48-5.42a11.31,11.31,0,0,0-2.82,1.58l-1.72-2L9.59,16l2.62-2.19q3.52-2.82,5.36-3h.49q3.77,0,4.7,5.42.52,3.09.86,5t.56,2.7q1.25,5.12,2.69,5.15,1.11,0,3.41-3.34t2.41-5.08a4.29,4.29,0,0,0,0-.63q0-2.24-2.46-2.24a7.9,7.9,0,0,0-2.67.52q2.55-7.86,9.8-7.88Z"/></svg>