<svg id="Layer_1" data-name="Layer 1" xmlns="http://www.w3.org/2000/svg" width="50" height="50" viewBox="0 0 50 50"><defs><style>.cls-1{fill:none;}.cls-2{fill:#1c566c;}</style></defs><title>social-twitter-teal</title><rect class="cls-1" width="50" height="50"/><path class="cls-2" d="M40,17.55v.88A21.7,21.7,0,0,1,18.29,40.12h-.41A20.92,20.92,0,0,1,6.49,36.83H8.24a14.52,14.52,0,0,0,9.42-3.29,7.77,7.77,0,0,1-7.23-5.26H12a6.07,6.07,0,0,0,2-.22,7.76,7.76,0,0,1-6.2-7.44h0a6.43,6.43,0,0,0,3.51.88A7.66,7.66,0,0,1,9.12,11.2a21.86,21.86,0,0,0,15.55,8.1,4.82,4.82,0,0,1-.22-1.75A7.62,7.62,0,0,1,32,9.88h.1a8,8,0,0,1,5.7,2.41,12.79,12.79,0,0,0,4.82-1.75,8.22,8.22,0,0,1-3.51,4.16,14.54,14.54,0,0,0,4.38-1.31A10.83,10.83,0,0,1,40,17.55Z"/></svg>